<mxfile host="app.diagrams.net" modified="2024-03-21T03:10:41.843Z" agent="Mozilla/5.0 (Windows NT 10.0; Win64; x64) AppleWebKit/537.36 (KHTML, like Gecko) Chrome/122.0.0.0 Safari/537.36 Edg/122.0.0.0" etag="f541R0JaDBhVyx2BJXzv" version="24.0.7" type="github">
  <diagram name="第 1 页" id="nrKj6BwsMzREsizkM3ZF">
    <mxGraphModel dx="2000" dy="1903" grid="1" gridSize="10" guides="1" tooltips="1" connect="1" arrows="1" fold="1" page="1" pageScale="1" pageWidth="827" pageHeight="1169" math="0" shadow="0">
      <root>
        <mxCell id="0" />
        <mxCell id="1" parent="0" />
        <mxCell id="IOEidkEeXQ7lz5Kok1fQ-10" value="" style="rounded=0;whiteSpace=wrap;html=1;fillColor=#dae8fc;strokeColor=#6c8ebf;" vertex="1" parent="1">
          <mxGeometry x="-60" y="290" width="570" height="190" as="geometry" />
        </mxCell>
        <mxCell id="IOEidkEeXQ7lz5Kok1fQ-2" value="生产者" style="rounded=0;whiteSpace=wrap;html=1;" vertex="1" parent="1">
          <mxGeometry y="390" width="120" height="60" as="geometry" />
        </mxCell>
        <mxCell id="IOEidkEeXQ7lz5Kok1fQ-4" value="" style="rounded=0;whiteSpace=wrap;html=1;" vertex="1" parent="1">
          <mxGeometry x="-60" y="180" width="570" height="110" as="geometry" />
        </mxCell>
        <mxCell id="IOEidkEeXQ7lz5Kok1fQ-9" style="rounded=0;orthogonalLoop=1;jettySize=auto;html=1;exitX=0.5;exitY=1;exitDx=0;exitDy=0;entryX=0.5;entryY=0;entryDx=0;entryDy=0;" edge="1" parent="1" source="IOEidkEeXQ7lz5Kok1fQ-5" target="IOEidkEeXQ7lz5Kok1fQ-7">
          <mxGeometry relative="1" as="geometry" />
        </mxCell>
        <mxCell id="IOEidkEeXQ7lz5Kok1fQ-5" value="定位问题Topic_xxx" style="rounded=0;whiteSpace=wrap;html=1;fillColor=#dae8fc;strokeColor=#6c8ebf;" vertex="1" parent="1">
          <mxGeometry x="100" y="200" width="120" height="60" as="geometry" />
        </mxCell>
        <mxCell id="IOEidkEeXQ7lz5Kok1fQ-6" value="线上真实Topic" style="rounded=0;whiteSpace=wrap;html=1;fillColor=#d5e8d4;strokeColor=#82b366;" vertex="1" parent="1">
          <mxGeometry x="340" y="200" width="120" height="60" as="geometry" />
        </mxCell>
        <mxCell id="IOEidkEeXQ7lz5Kok1fQ-7" value="消费者" style="rounded=0;whiteSpace=wrap;html=1;" vertex="1" parent="1">
          <mxGeometry x="230" y="390" width="120" height="60" as="geometry" />
        </mxCell>
        <mxCell id="IOEidkEeXQ7lz5Kok1fQ-8" style="rounded=0;orthogonalLoop=1;jettySize=auto;html=1;exitX=0.5;exitY=0;exitDx=0;exitDy=0;entryX=0.5;entryY=1;entryDx=0;entryDy=0;" edge="1" parent="1" source="IOEidkEeXQ7lz5Kok1fQ-2" target="IOEidkEeXQ7lz5Kok1fQ-5">
          <mxGeometry relative="1" as="geometry" />
        </mxCell>
        <mxCell id="IOEidkEeXQ7lz5Kok1fQ-11" value="本地服务-定位问题" style="text;html=1;align=center;verticalAlign=middle;whiteSpace=wrap;rounded=0;" vertex="1" parent="1">
          <mxGeometry x="-60" y="300" width="120" height="30" as="geometry" />
        </mxCell>
        <mxCell id="IOEidkEeXQ7lz5Kok1fQ-13" value="" style="rounded=0;whiteSpace=wrap;html=1;fillColor=#d5e8d4;strokeColor=#82b366;" vertex="1" parent="1">
          <mxGeometry x="-60" y="-10" width="570" height="190" as="geometry" />
        </mxCell>
        <mxCell id="IOEidkEeXQ7lz5Kok1fQ-17" style="rounded=0;orthogonalLoop=1;jettySize=auto;html=1;exitX=0.5;exitY=1;exitDx=0;exitDy=0;entryX=0.5;entryY=0;entryDx=0;entryDy=0;" edge="1" parent="1" source="IOEidkEeXQ7lz5Kok1fQ-14" target="IOEidkEeXQ7lz5Kok1fQ-6">
          <mxGeometry relative="1" as="geometry" />
        </mxCell>
        <mxCell id="IOEidkEeXQ7lz5Kok1fQ-14" value="生产者" style="rounded=0;whiteSpace=wrap;html=1;" vertex="1" parent="1">
          <mxGeometry x="110" y="70" width="120" height="60" as="geometry" />
        </mxCell>
        <mxCell id="IOEidkEeXQ7lz5Kok1fQ-15" value="消费者" style="rounded=0;whiteSpace=wrap;html=1;" vertex="1" parent="1">
          <mxGeometry x="340" y="80" width="120" height="60" as="geometry" />
        </mxCell>
        <mxCell id="IOEidkEeXQ7lz5Kok1fQ-16" value="线上服务-正常运行" style="text;html=1;align=center;verticalAlign=middle;whiteSpace=wrap;rounded=0;" vertex="1" parent="1">
          <mxGeometry x="-60" width="120" height="30" as="geometry" />
        </mxCell>
        <mxCell id="IOEidkEeXQ7lz5Kok1fQ-18" style="edgeStyle=orthogonalEdgeStyle;rounded=0;orthogonalLoop=1;jettySize=auto;html=1;exitX=0.5;exitY=0;exitDx=0;exitDy=0;entryX=0.5;entryY=1;entryDx=0;entryDy=0;" edge="1" parent="1" source="IOEidkEeXQ7lz5Kok1fQ-6" target="IOEidkEeXQ7lz5Kok1fQ-15">
          <mxGeometry relative="1" as="geometry" />
        </mxCell>
        <mxCell id="IOEidkEeXQ7lz5Kok1fQ-19" value="线上SQS" style="text;html=1;align=center;verticalAlign=middle;whiteSpace=wrap;rounded=0;" vertex="1" parent="1">
          <mxGeometry x="-60" y="180" width="60" height="30" as="geometry" />
        </mxCell>
      </root>
    </mxGraphModel>
  </diagram>
</mxfile>
